# xmcd CD database file
#
# Track frame offsets:
#	150
#	25305
#	38925
#	63102
#	82082
#	95960
#	113895
#	126887
#	145535
#	165575
#
# Disc length: 2499 seconds
#
# Revision: 0
# Processed by: cddbd v1.5.1PL0 Copyright (c) Steve Scherf et al.
# Submitted via: CDex 1.51
#
DISCID=8509c10a
DTITLE=Sparks Go Go - ROCKWORK ORANGE
DYEAR=1991
DGENRE=JRock
TTITLE0=SAD JUNGLE
TTITLE1=トランス ! スタンス ? バランス !?
TTITLE2=オオカミが来た
TTITLE3=AFTER
TTITLE4=Route 5
TTITLE5=NO HUMAN
TTITLE6=SLOW DOWN
TTITLE7=テ・レ・ビ (Best of story)
TTITLE8=MONEY HONEY
TTITLE9=オレンジの夜
EXTD=YEAR: 1991
EXTT0=
EXTT1=
EXTT2=
EXTT3=
EXTT4=
EXTT5=
EXTT6=
EXTT7=
EXTT8=
EXTT9=
PLAYORDER=
